<svg width="32" height="32" viewBox="0 0 32 32" fill="none" xmlns="http://www.w3.org/2000/svg">
<rect width="32" height="32" fill="#45454A"/>
<path d="M19.6611 7.00333L17.5024 7C15.0772 7 13.5099 8.54552 13.5099 10.9376V12.7531H11.3394C11.1519 12.7531 11 12.8993 11 13.0795V15.71C11 15.8903 11.1521 16.0363 11.3394 16.0363H13.5099V22.6738C13.5099 22.854 13.6618 23 13.8493 23H16.6812C16.8687 23 17.0206 22.8539 17.0206 22.6738V16.0363H19.5584C19.7459 16.0363 19.8978 15.8903 19.8978 15.71L19.8989 13.0795C19.8989 12.993 19.863 12.9101 19.7995 12.8488C19.7359 12.7876 19.6493 12.7531 19.5593 12.7531H17.0206V11.2141C17.0206 10.4744 17.204 10.0989 18.2065 10.0989L19.6607 10.0984C19.8481 10.0984 20 9.95222 20 9.77211V7.32958C20 7.14964 19.8483 7.00366 19.6611 7.00333Z" fill="white"/>
</svg>
