<svg width="32" height="32" viewBox="0 0 32 32" fill="none" xmlns="http://www.w3.org/2000/svg">
<rect width="32" height="32" fill="#45454A"/>
<path d="M19.5845 8H12.4153C9.98072 8 8 9.98081 8 12.4154V19.5846C8 22.0193 9.98072 24 12.4153 24H19.5845C22.0193 24 24 22.0192 24 19.5846V12.4154C24.0001 9.98081 22.0193 8 19.5845 8ZM22.5805 19.5846C22.5805 21.2365 21.2365 22.5804 19.5846 22.5804H12.4153C10.7635 22.5805 9.4196 21.2365 9.4196 19.5846V12.4154C9.4196 10.7636 10.7635 9.4196 12.4153 9.4196H19.5845C21.2364 9.4196 22.5804 10.7636 22.5804 12.4154L22.5805 19.5846Z" fill="white"/>
<path d="M16 11.8774C13.7267 11.8774 11.8772 13.7268 11.8772 16.0002C11.8772 18.2734 13.7267 20.1228 16 20.1228C18.2733 20.1228 20.1228 18.2734 20.1228 16.0002C20.1228 13.7268 18.2733 11.8774 16 11.8774ZM16 18.7031C14.5095 18.7031 13.2968 17.4906 13.2968 16.0001C13.2968 14.5095 14.5094 13.2969 16 13.2969C17.4906 13.2969 18.7032 14.5095 18.7032 16.0001C18.7032 17.4906 17.4905 18.7031 16 18.7031Z" fill="white"/>
<path d="M20.2957 10.6737C20.0222 10.6737 19.7535 10.7844 19.5604 10.9784C19.3662 11.1715 19.2547 11.4403 19.2547 11.7147C19.2547 11.9883 19.3663 12.257 19.5604 12.451C19.7534 12.6441 20.0222 12.7557 20.2957 12.7557C20.5702 12.7557 20.838 12.6441 21.032 12.451C21.226 12.257 21.3367 11.9882 21.3367 11.7147C21.3367 11.4403 21.226 11.1715 21.032 10.9784C20.8389 10.7844 20.5702 10.6737 20.2957 10.6737Z" fill="white"/>
</svg>
