<svg width="39" height="57" viewBox="0 0 39 57" fill="none" xmlns="http://www.w3.org/2000/svg">
<path d="M18.6658 46.1086C13.9874 46.1086 10.8367 41.8384 10.8367 37.904C10.8367 33.298 10.8367 33.4899 10.8367 28.8838H0V35.2172C0 38.1439 0 40.8308 0.190955 43.4217C0.477387 47.7879 2.38693 50.3788 4.77387 52.6338C8.0201 55.7525 13.4146 57 19.0477 57C24.6332 57 30.0754 55.7045 33.3216 52.6338C35.6608 50.3788 37.5704 47.7879 37.9045 43.3737C38.0955 40.8308 38.0955 38.096 38.0955 35.1692V28.8838H27.1633C27.1633 33.4899 27.1633 33.298 27.1633 37.904C27.1633 40.303 25.4447 46.1086 18.6658 46.1086Z" fill="white"/>
<path d="M0 0H10.8367L27.1633 14.3939V0H38V27.5404H27.1633L10.7889 14.0101V27.5404H0V0Z" fill="white"/>
<path d="M12.5553 39.8232C12.1257 38.5278 12.0779 37.1364 12.1257 35.601C12.1734 34.1616 12.1257 20.6313 12.1257 16.7929C12.1257 16.7929 18.8568 22.1667 14.9423 28.8838C15.9925 28.1162 17.2337 27.5404 19.191 27.5404C21.5779 27.5404 23.3443 28.1641 24.9196 30.1313C25.8267 31.3788 26.3041 32.4823 26.3041 34.1136C26.3041 36.5126 25.5402 38.2879 23.4397 39.3434C21.9121 40.0152 20.8619 40.1111 19.3342 39.6313C17.9498 39.1035 16.8995 37.7601 16.8995 35.8889C16.8995 34.0657 18.0453 32.7702 19.5729 32.7702C20.9573 32.8182 21.7689 33.6818 21.7212 35.1692C21.7212 36.0808 21.2438 36.5606 20.7186 37.0884C22.3895 37.2323 23.4875 35.553 23.4397 34.1616C23.2965 31.5227 21.196 30.7071 19.1433 30.851C16.995 31.0429 15.2764 32.6263 15.0855 34.9293C14.8945 36.8965 15.0855 38.2399 16.0402 39.6793C18.284 42.654 21.9598 42.702 25.4448 40.6869C21.3392 47.548 13.7965 44.1894 12.5553 39.8232Z" fill="white"/>
<path d="M25.8744 0C25.8744 1.19949 25.8744 8.87626 25.8744 11.5631C25.8744 11.5631 20.9096 7.62879 22.3895 1.87121C21.3392 2.39899 17.3769 4.2702 12.3644 0H25.8744Z" fill="white"/>
</svg>
