<svg width="133" height="15" viewBox="0 0 133 15" fill="none" xmlns="http://www.w3.org/2000/svg">
<path fill-rule="evenodd" clip-rule="evenodd" d="M61.7533 12.01C61.3903 12.079 61.4313 11.909 61.5423 11.756C61.5893 11.698 61.6373 11.65 61.6963 11.585C62.4623 10.714 63.0613 10.394 62.0663 10.392C61.0993 10.392 60.7473 10.374 60.4793 10.108L60.4623 10.091C60.2943 9.921 60.1823 9.447 60.1813 8.505C60.1823 7.512 59.8583 8.11 58.9853 8.875C58.9213 8.936 58.8743 8.985 58.8143 9.029C58.6643 9.142 58.4933 9.182 58.5623 8.818C58.6813 8.198 59.2623 6.607 59.9763 6.139C61.0203 5.449 62.0233 5.486 62.3523 5.245C64.6463 3.591 66.8353 2.936 67.3013 3.272C67.6363 3.736 66.9833 5.924 65.3283 8.219C65.0863 8.548 65.1253 9.553 64.4333 10.596C63.9643 11.311 62.3733 11.89 61.7533 12.01ZM70.5733 7.23294C70.5753 3.23797 67.3343 0.00100092 63.3403 9.2542e-07C59.3413 -0.00199906 56.1023 3.23797 56.1023 7.23494C56.1033 11.2309 59.3403 14.4719 63.3373 14.4709C67.3373 14.4689 70.5733 11.2309 70.5733 7.23294Z" fill="#E55353"/>
<path fill-rule="evenodd" clip-rule="evenodd" d="M65.0833 6.7759C65.0623 7.4649 64.4883 8.0019 63.7933 7.9749C63.1143 7.9489 62.5733 7.3719 62.5963 6.6829C62.6213 5.9919 63.2023 5.4599 63.8893 5.4819C64.5773 5.5069 65.1123 6.0879 65.0833 6.7759Z" fill="#E55353"/>
<path fill-rule="evenodd" clip-rule="evenodd" d="M3.878 6.84814C4.26 6.84814 4.578 6.74214 4.831 6.52814C5.084 6.31514 5.211 6.02214 5.211 5.64914C5.211 5.27614 5.084 4.98214 4.831 4.76914C4.578 4.55714 4.26 4.44914 3.878 4.44914H1.893V6.84814H3.878ZM5.024 11.6731L3.278 8.51414H1.893V11.6731H0V2.78414H4.166C4.628 2.78414 5.045 2.85414 5.414 2.99714C5.784 3.13914 6.097 3.33914 6.355 3.59714C6.614 3.85414 6.811 4.15914 6.95 4.51014C7.088 4.86114 7.156 5.24014 7.156 5.64914C7.156 6.04014 7.101 6.38614 6.989 6.68914C6.877 6.99114 6.727 7.25014 6.539 7.46814C6.352 7.68614 6.141 7.86314 5.909 8.00114C5.676 8.13914 5.439 8.23514 5.198 8.28814L7.197 11.6731H5.024Z" fill="white"/>
<path fill-rule="evenodd" clip-rule="evenodd" d="M13.113 10.154C13.522 10.154 13.893 10.078 14.226 9.92796C14.559 9.77596 14.843 9.57196 15.079 9.31396C15.314 9.05596 15.497 8.74996 15.625 8.39396C15.754 8.03896 15.818 7.65296 15.818 7.23496C15.818 6.81796 15.754 6.43096 15.625 6.07596C15.497 5.72096 15.314 5.41196 15.079 5.14996C14.843 4.88696 14.559 4.68296 14.226 4.53596C13.893 4.38996 13.522 4.31596 13.113 4.31596C12.705 4.31596 12.333 4.38996 12 4.53596C11.667 4.68296 11.385 4.88696 11.154 5.14996C10.923 5.41196 10.743 5.72096 10.615 6.07596C10.486 6.43096 10.421 6.81796 10.421 7.23496C10.421 7.65296 10.486 8.03896 10.615 8.39396C10.743 8.74996 10.923 9.05596 11.154 9.31396C11.385 9.57196 11.667 9.77596 12 9.92796C12.333 10.078 12.705 10.154 13.113 10.154ZM13.113 11.833C12.447 11.833 11.829 11.72 11.261 11.493C10.692 11.267 10.201 10.949 9.788 10.54C9.375 10.131 9.053 9.64496 8.822 9.08096C8.591 8.51696 8.475 7.90096 8.475 7.23496C8.475 6.56896 8.591 5.95296 8.822 5.38896C9.053 4.82596 9.375 4.33896 9.788 3.93096C10.201 3.52096 10.692 3.20396 11.261 2.97696C11.829 2.75096 12.447 2.63696 13.113 2.63696C13.789 2.63696 14.41 2.75096 14.979 2.97696C15.547 3.20396 16.038 3.52096 16.452 3.93096C16.864 4.33896 17.187 4.82596 17.418 5.38896C17.649 5.95296 17.764 6.56896 17.764 7.23496C17.764 7.90096 17.649 8.51696 17.418 9.08096C17.187 9.64496 16.864 10.131 16.452 10.54C16.038 10.949 15.547 11.267 14.979 11.493C14.41 11.72 13.789 11.833 13.113 11.833Z" fill="white"/>
<path fill-rule="evenodd" clip-rule="evenodd" d="M23.6679 11.8333C23.0019 11.8333 22.3789 11.7223 21.8019 11.4993C21.2239 11.2773 20.7249 10.9643 20.3029 10.5603C19.8809 10.1563 19.5479 9.67226 19.3029 9.10726C19.0589 8.54426 18.9369 7.92026 18.9369 7.23526C18.9369 6.55126 19.0589 5.92726 19.3029 5.36326C19.5479 4.79826 19.8809 4.31426 20.3029 3.91026C20.7249 3.50626 21.2239 3.19326 21.8019 2.97126C22.3789 2.74826 23.0019 2.63726 23.6679 2.63726C24.1559 2.63726 24.5959 2.70026 24.9869 2.82426C25.3779 2.94926 25.7239 3.11026 26.0269 3.31126C26.3279 3.51026 26.5909 3.74126 26.8129 4.00326C27.0349 4.26526 27.2259 4.53426 27.3859 4.80926L25.7599 5.60926C25.5739 5.24526 25.2939 4.93826 24.9199 4.69026C24.5469 4.44126 24.1299 4.31626 23.6679 4.31626C23.2679 4.31626 22.8969 4.39026 22.5549 4.53626C22.2129 4.68226 21.9169 4.88726 21.6689 5.14926C21.4199 5.41226 21.2259 5.72026 21.0889 6.07626C20.9509 6.43126 20.8819 6.81826 20.8819 7.23526C20.8819 7.65326 20.9509 8.04126 21.0889 8.40126C21.2259 8.76026 21.4199 9.06926 21.6689 9.32726C21.9169 9.58526 22.2129 9.78826 22.5549 9.93426C22.8969 10.0803 23.2679 10.1543 23.6679 10.1543C24.1299 10.1543 24.5469 10.0313 24.9199 9.78826C25.2939 9.54326 25.5739 9.23426 25.7599 8.86126L27.3859 9.64726C27.2259 9.92326 27.0349 10.1923 26.8129 10.4543C26.5909 10.7153 26.3279 10.9493 26.0269 11.1533C25.7239 11.3573 25.3779 11.5223 24.9869 11.6463C24.5959 11.7703 24.1559 11.8333 23.6679 11.8333Z" fill="white"/>
<path fill-rule="evenodd" clip-rule="evenodd" d="M34.5289 11.673L31.8369 8.11496L31.1439 8.94096V11.673H29.2519V2.78396H31.1439V6.75496L34.2899 2.78396H36.6219L33.0899 6.95596L36.8619 11.673H34.5289Z" fill="white"/>
<path fill-rule="evenodd" clip-rule="evenodd" d="M38.5273 11.673V2.78396H44.8173V4.44996H40.4193V6.32896H44.7243V7.99496H40.4193V10.007H44.8173V11.673H38.5273Z" fill="white"/>
<path fill-rule="evenodd" clip-rule="evenodd" d="M49.2144 11.673V4.44996H46.6154V2.78396H53.6924V4.44996H51.1064V11.673H49.2144Z" fill="white"/>
<path fill-rule="evenodd" clip-rule="evenodd" d="M73.5605 11.6731V2.78406H79.8505V4.45006H75.4525V6.32906H79.7575V7.99506H75.4525V11.6731H73.5605Z" fill="white"/>
<path fill-rule="evenodd" clip-rule="evenodd" d="M81.97 11.6736H83.862V2.78456H81.97V11.6736Z" fill="white"/>
<path fill-rule="evenodd" clip-rule="evenodd" d="M90.0316 6.84846C90.4136 6.84846 90.7316 6.74246 90.9846 6.52846C91.2376 6.31546 91.3646 6.02246 91.3646 5.64946C91.3646 5.27646 91.2376 4.98246 90.9846 4.76946C90.7316 4.55746 90.4136 4.44946 90.0316 4.44946H88.0466V6.84846H90.0316ZM91.1776 11.6735L89.4316 8.51446H88.0466V11.6735H86.1536V2.78446H90.3196C90.7816 2.78446 91.1986 2.85446 91.5676 2.99746C91.9376 3.13946 92.2506 3.33946 92.5086 3.59746C92.7676 3.85446 92.9646 4.15946 93.1036 4.51046C93.2416 4.86146 93.3106 5.24046 93.3106 5.64946C93.3106 6.04046 93.2546 6.38646 93.1426 6.68946C93.0306 6.99146 92.8806 7.25046 92.6926 7.46846C92.5056 7.68646 92.2946 7.86346 92.0626 8.00146C91.8296 8.13946 91.5926 8.23546 91.3516 8.28846L93.3506 11.6735H91.1776Z" fill="white"/>
<path fill-rule="evenodd" clip-rule="evenodd" d="M102.919 11.6731V5.45006L100.414 11.6731H99.5866L97.0816 5.45006V11.6731H95.1896V2.78406H97.8376L99.9936 8.15506L102.15 2.78406H104.811V11.6731H102.919Z" fill="white"/>
<path d="M124.835 8.74219L125.426 8.6875C125.476 8.96549 125.572 9.16715 125.713 9.29248C125.855 9.41781 126.036 9.48047 126.257 9.48047C126.446 9.48047 126.611 9.43717 126.752 9.35059C126.896 9.264 127.013 9.14893 127.104 9.00537C127.196 8.85954 127.272 8.66357 127.333 8.41748C127.395 8.17139 127.426 7.92074 127.426 7.66553C127.426 7.63818 127.425 7.59717 127.422 7.54248C127.299 7.73844 127.131 7.89795 126.917 8.021C126.705 8.14176 126.474 8.20215 126.226 8.20215C125.811 8.20215 125.46 8.05176 125.173 7.75098C124.886 7.4502 124.743 7.05371 124.743 6.56152C124.743 6.05339 124.892 5.64437 125.19 5.33447C125.491 5.02458 125.867 4.86963 126.318 4.86963C126.644 4.86963 126.942 4.95736 127.21 5.13281C127.482 5.30827 127.687 5.55892 127.826 5.88477C127.967 6.20833 128.038 6.67773 128.038 7.29297C128.038 7.93327 127.968 8.44368 127.829 8.82422C127.69 9.20247 127.483 9.49072 127.207 9.68896C126.934 9.88721 126.612 9.98633 126.243 9.98633C125.851 9.98633 125.531 9.87809 125.283 9.66162C125.034 9.44287 124.885 9.13639 124.835 8.74219ZM127.354 6.53076C127.354 6.17757 127.259 5.8973 127.07 5.68994C126.883 5.48258 126.658 5.37891 126.394 5.37891C126.12 5.37891 125.882 5.49056 125.679 5.71387C125.476 5.93717 125.375 6.22656 125.375 6.58203C125.375 6.90104 125.471 7.16081 125.662 7.36133C125.856 7.55957 126.094 7.65869 126.376 7.65869C126.661 7.65869 126.895 7.55957 127.077 7.36133C127.262 7.16081 127.354 6.88395 127.354 6.53076Z" fill="white"/>
<path fill-rule="evenodd" clip-rule="evenodd" d="M130.913 12.229H110.913C110.363 12.229 109.913 11.779 109.913 11.229V3.229C109.913 2.679 110.363 2.229 110.913 2.229H130.913C131.463 2.229 131.913 2.679 131.913 3.229V11.229C131.913 11.779 131.463 12.229 130.913 12.229Z" stroke="white" stroke-width="0.5"/>
</svg>
