<svg width="40" height="22" viewBox="0 0 40 22" fill="none" xmlns="http://www.w3.org/2000/svg">
<path d="M9.14184 18.2615C7.34021 18.2702 5.57656 17.7419 4.07446 16.7435C2.57235 15.7451 1.39942 14.3216 0.704346 12.6534C0.00927059 10.9853 -0.176653 9.14756 0.170142 7.37323C0.516937 5.5989 1.38083 3.96786 2.65233 2.68684C3.92383 1.40582 5.54567 0.532513 7.31227 0.177614C9.07888 -0.177285 10.9107 0.00220484 12.5756 0.693332C14.2404 1.38446 15.6633 2.5561 16.6639 4.05975C17.6645 5.5634 18.1977 7.33134 18.196 9.13948C18.1966 11.5529 17.244 13.8681 15.5469 15.5779C13.8498 17.2878 11.5466 18.2527 9.14184 18.2615ZM9.14184 1.768C7.68782 1.75929 6.26396 2.18402 5.05073 2.98836C3.83751 3.7927 2.88954 4.94042 2.32699 6.28607C1.76444 7.63171 1.61263 9.11468 1.89081 10.547C2.16899 11.9793 2.86463 13.2965 3.88956 14.3316C4.91448 15.3667 6.22255 16.0731 7.64796 16.3613C9.07337 16.6495 10.5519 16.5065 11.8963 15.9504C13.2406 15.3942 14.3901 14.4501 15.1992 13.2376C16.0082 12.0251 16.4404 10.5988 16.4408 9.13948C16.4449 7.19118 15.6787 5.32084 14.3103 3.93885C12.9419 2.55687 11.0831 1.77615 9.14184 1.768Z" fill="white"/>
<path d="M20.7598 22L14.701 15.9524L15.9412 14.7077L22 20.7531L20.7598 22Z" fill="white"/>
<rect x="20" width="20" height="2" fill="white"/>
<rect x="27" y="19" width="13" height="2" fill="white"/>
<rect x="24" y="9" width="16" height="2" fill="white"/>
</svg>
