<svg width="32" height="32" viewBox="0 0 32 32" fill="none" xmlns="http://www.w3.org/2000/svg">
<rect width="32" height="32" fill="#45454A"/>
<path d="M23.9098 20.0311C23.8893 19.9854 23.8701 19.9474 23.8522 19.917C23.5573 19.3693 22.9937 18.6971 22.1617 17.9001L22.1353 17.8729C21.7399 17.4926 21.5007 17.2431 21.4006 17.1153C21.2174 16.872 21.1763 16.6256 21.2765 16.376C21.3472 16.1874 21.613 15.7892 22.0731 15.1807C22.3151 14.8582 22.5068 14.5998 22.6484 14.4051C23.6693 13.0057 24.1119 12.1115 23.9761 11.7221L23.9234 11.6311C23.8879 11.5763 23.7965 11.5262 23.6491 11.4805C23.5014 11.4349 23.3127 11.4274 23.0825 11.4578L20.5334 11.4759C20.4921 11.4608 20.4331 11.4622 20.3563 11.4805C20.2796 11.4988 20.2412 11.508 20.2412 11.508L20.1968 11.5308L20.1616 11.5583C20.1321 11.5764 20.0997 11.6084 20.0642 11.654C20.029 11.6995 19.9995 11.7529 19.9759 11.8137C19.6984 12.5498 19.3829 13.2343 19.0287 13.8669C18.8104 14.2442 18.6099 14.5711 18.4267 14.848C18.2439 15.1247 18.0904 15.3286 17.9666 15.4593C17.8426 15.5901 17.7307 15.6949 17.6302 15.7741C17.5298 15.8533 17.4532 15.8868 17.4002 15.8745C17.347 15.8623 17.297 15.8501 17.2496 15.838C17.167 15.7832 17.1006 15.7087 17.0505 15.6144C17.0002 15.5201 16.9664 15.4014 16.9487 15.2585C16.9311 15.1154 16.9207 14.9923 16.9177 14.8889C16.9149 14.7855 16.9162 14.6394 16.9222 14.4508C16.9283 14.2621 16.9311 14.1345 16.9311 14.0675C16.9311 13.8363 16.9354 13.5854 16.9442 13.3146C16.9531 13.0439 16.9604 12.8294 16.9664 12.6714C16.9724 12.5132 16.9752 12.3458 16.9752 12.1694C16.9752 11.993 16.9648 11.8546 16.9442 11.7542C16.9239 11.6539 16.8927 11.5565 16.8515 11.4621C16.8101 11.3678 16.7496 11.2949 16.6701 11.2431C16.5904 11.1914 16.4914 11.1504 16.3736 11.1199C16.0608 11.0469 15.6625 11.0074 15.1786 11.0013C14.0811 10.9892 13.3759 11.0622 13.0631 11.2204C12.9392 11.2872 12.8271 11.3786 12.7268 11.4941C12.6206 11.628 12.6058 11.701 12.6825 11.713C13.0366 11.7677 13.2872 11.8986 13.4348 12.1054L13.4879 12.215C13.5293 12.2941 13.5706 12.4341 13.6119 12.6348C13.6532 12.8355 13.6798 13.0576 13.6915 13.3008C13.721 13.745 13.721 14.1252 13.6915 14.4415C13.662 14.758 13.6341 15.0043 13.6075 15.1807C13.5808 15.3572 13.541 15.5001 13.4879 15.6096C13.4348 15.7191 13.3994 15.786 13.3817 15.8103C13.364 15.8346 13.3492 15.8499 13.3375 15.8559C13.2608 15.8862 13.181 15.9017 13.0985 15.9017C13.0158 15.9017 12.9155 15.859 12.7975 15.7738C12.6796 15.6886 12.5572 15.5716 12.4303 15.4225C12.3034 15.2734 12.1603 15.065 12.0009 14.7974C11.8416 14.5297 11.6764 14.2134 11.5053 13.8484L11.3637 13.5836C11.2752 13.4133 11.1543 13.1654 11.0008 12.84C10.8473 12.5144 10.7116 12.1995 10.5937 11.8953C10.5465 11.7676 10.4757 11.6703 10.3813 11.6034L10.337 11.5759C10.3075 11.5516 10.2602 11.5258 10.1954 11.4984C10.1304 11.4709 10.0627 11.4512 9.99181 11.4391L7.56658 11.4572C7.31876 11.4572 7.15061 11.5151 7.06207 11.6307L7.02663 11.6854C7.00893 11.7159 7 11.7645 7 11.8315C7 11.8984 7.0177 11.9806 7.05314 12.0778C7.40717 12.9357 7.79218 13.7631 8.20816 14.56C8.62414 15.357 8.98562 15.999 9.29238 16.4854C9.5992 16.9722 9.91195 17.4316 10.2306 17.8634C10.5493 18.2954 10.7602 18.5722 10.8634 18.6938C10.9667 18.8156 11.0479 18.9067 11.1069 18.9676L11.3282 19.1865C11.4698 19.3326 11.6778 19.5075 11.9522 19.7112C12.2266 19.9151 12.5305 20.1159 12.8639 20.3137C13.1973 20.5113 13.5853 20.6725 14.0279 20.7972C14.4704 20.922 14.9012 20.9721 15.3201 20.948H16.338C16.5445 20.9296 16.7009 20.8626 16.8072 20.7471L16.8424 20.7014C16.8661 20.6651 16.8883 20.6087 16.9087 20.5328C16.9294 20.4567 16.9397 20.3729 16.9397 20.2818C16.9337 20.0203 16.953 19.7845 16.9971 19.5747C17.0413 19.3649 17.0915 19.2067 17.1478 19.1001C17.204 18.9937 17.2674 18.9039 17.338 18.8311C17.4087 18.7581 17.4592 18.7139 17.4887 18.6987C17.5181 18.6834 17.5416 18.673 17.5593 18.6668C17.7009 18.6181 17.8676 18.6652 18.0595 18.8083C18.2513 18.9513 18.4312 19.1278 18.5995 19.3376C18.7677 19.5476 18.9698 19.7832 19.2058 20.0448C19.4419 20.3064 19.6484 20.5009 19.8253 20.6289L20.0023 20.7384C20.1205 20.8114 20.2739 20.8784 20.4627 20.9392C20.6513 21 20.8164 21.0152 20.9583 20.9848L23.2241 20.9484C23.4482 20.9484 23.6226 20.9101 23.7463 20.8342C23.8702 20.7582 23.9438 20.6744 23.9676 20.5833C23.9913 20.492 23.9926 20.3885 23.9721 20.2728C23.9511 20.1574 23.9304 20.0767 23.9098 20.0311Z" fill="white"/>
</svg>
