<svg width="32" height="32" viewBox="0 0 32 32" fill="none" xmlns="http://www.w3.org/2000/svg">
<rect width="32" height="32" fill="#45454A"/>
<path d="M21.9538 10H10.0462C9.23826 10 8.46346 10.309 7.8922 10.8592C7.32093 11.4093 7 12.1554 7 12.9333V19.0667C7 19.8446 7.32093 20.5907 7.8922 21.1408C8.46346 21.691 9.23826 22 10.0462 22H21.9538C22.7617 22 23.5365 21.691 24.1078 21.1408C24.6791 20.5907 25 19.8446 25 19.0667V12.9333C25 12.1554 24.6791 11.4093 24.1078 10.8592C23.5365 10.309 22.7617 10 21.9538 10ZM19.5252 16.1173L14.1252 18.784C14.1042 18.7945 14.0807 18.7996 14.0571 18.7989C14.0334 18.7981 14.0103 18.7916 13.9901 18.7798C13.9698 18.768 13.953 18.7515 13.9412 18.7316C13.9295 18.7118 13.9233 18.6895 13.9231 18.6667V13.3333C13.9233 13.3105 13.9295 13.2882 13.9412 13.2684C13.953 13.2485 13.9698 13.232 13.9901 13.2202C14.0103 13.2084 14.0334 13.2019 14.0571 13.2011C14.0807 13.2004 14.1042 13.2055 14.1252 13.216L19.5252 15.8827C19.5479 15.8939 19.5669 15.9109 19.5802 15.9318C19.5935 15.9527 19.6006 15.9768 19.6006 16.0013C19.6006 16.0259 19.5935 16.0499 19.5802 16.0709C19.5669 16.0918 19.5479 16.1088 19.5252 16.12V16.1173Z" fill="white"/>
</svg>
